<?xml version="1.0" encoding="utf-8"?>
<!-- Generator: Adobe Illustrator 16.0.0, SVG Export Plug-In . SVG Version: 6.00 Build 0)  -->
<!DOCTYPE svg PUBLIC "-//W3C//DTD SVG 1.1//EN" "http://www.w3.org/Graphics/SVG/1.1/DTD/svg11.dtd">
<svg version="1.1" id="圖層_1" xmlns="http://www.w3.org/2000/svg" xmlns:xlink="http://www.w3.org/1999/xlink" x="0px" y="0px"
	 width="595.28px" height="841.89px" viewBox="0 0 595.28 841.89" enable-background="new 0 0 595.28 841.89" xml:space="preserve">
<path fill="#00A0E9" d="M565.022,15.1c0,8.339-9.76,15.1-21.794,15.1H52.051c-12.037,0-21.793-6.761-21.793-15.1l0,0
	c0-8.339,9.756-15.1,21.793-15.1h491.178C555.263,0,565.022,6.761,565.022,15.1L565.022,15.1z"/>
<path fill="#00A0E9" d="M565.022,826.445c0,8.338-9.76,15.099-21.794,15.099H52.051c-12.037,0-21.793-6.761-21.793-15.099l0,0
	c0-8.341,9.756-15.099,21.793-15.099h491.178C555.263,811.347,565.022,818.104,565.022,826.445L565.022,826.445z"/>
<path fill="#00A0E9" d="M565.022,420.772c0,8.34-9.76,15.1-21.794,15.1H52.051c-12.037,0-21.793-6.76-21.793-15.1l0,0
	c0-8.339,9.756-15.101,21.793-15.101h491.178C555.263,405.672,565.022,412.434,565.022,420.772L565.022,420.772z"/>
<path fill="#00A0E9" d="M15.1,400.956c-8.339,0-15.1-6.76-15.1-15.099V45.52c0-8.339,6.761-15.1,15.1-15.1l0,0
	c8.339,0,15.1,6.761,15.1,15.1v340.337C30.2,394.196,23.439,400.956,15.1,400.956L15.1,400.956z"/>
<path fill="#00A0E9" d="M580.182,400.956c-8.34,0-15.101-6.76-15.101-15.099V45.52c0-8.339,6.761-15.1,15.101-15.1l0,0
	c8.338,0,15.099,6.761,15.099,15.1v340.337C595.28,394.196,588.52,400.956,580.182,400.956L580.182,400.956z"/>
<path fill="#00A0E9" d="M580.182,809.046c-8.34,0-15.101-6.758-15.101-15.099V453.61c0-8.339,6.761-15.099,15.101-15.099l0,0
	c8.338,0,15.099,6.76,15.099,15.099v340.337C595.28,802.288,588.52,809.046,580.182,809.046L580.182,809.046z"/>
<path fill="#00A0E9" d="M15.1,809.046c-8.339,0-15.1-6.758-15.1-15.099V453.61c0-8.339,6.761-15.099,15.1-15.099l0,0
	c8.339,0,15.1,6.76,15.1,15.099v340.337C30.2,802.288,23.439,809.046,15.1,809.046L15.1,809.046z"/>
<circle fill="#00A0E9" cx="297.64" cy="623.779" r="33.105"/>
<circle fill="#00A0E9" cx="297.64" cy="215.689" r="33.105"/>
</svg>
